<svg width="100vw" height="100vh" viewBox="0 0 800 550" version="1.1" xmlns="http://www.w3.org/2000/svg" xmlns:xlink="http://www.w3.org/1999/xlink" xml:space="preserve" xmlns:serif="http://www.serif.com/" style="fill-rule:evenodd;clip-rule:evenodd;stroke-linejoin:round;stroke-miterlimit:2;">
    <g transform="matrix(1,0,0,1,-450,-200)">
        <path class="polygon-1" d="M266,130L140,312L328,462L539,420L554,215L440,127L266,130Z" style="fill: var(--green);"/>
    </g>
    <g transform="matrix(1,0,0,1,450,200)">
        <path class="polygon-2" d="M160,272L382,522L519,420L514,215L292,80Z" style="fill: var(--pink);"/>
    </g>
    <g transform="rotate(30), matrix(0.4,0.2,0.1,0.7,200,200)">
        <path class="polygon-3" d="M266,130L140,312L328,462L539,420L554,215L440,127L266,130Z" style="fill: var(--orange);"/>
    </g>
    <g transform="rotate(-20), matrix(0.6,0.1,0.2,0.5,330,70)">
        <path class="polygon-4" d="M160,272L382,522L519,420L514,215L292,80Z" style="fill: var(--green);"/>
    </g>
</svg>